#!OML:ASF F:\VICON\USERDATA\INSTALL\Justin_Nancy\Justin_Nancy.ASF
:FULLY-SPECIFIED
:DEGREES
47
root 1.26931 17.3036 -19.7184 -2.0194 0.304328 5.55795
lowerback 6.71659 -1.05474 -6.27787
upperback 0.896555 -1.83087 1.0347
thorax -2.60722 -0.84896 4.76536
lowerneck -16.3069 -2.47134 -9.39131
upperneck 20.6958 -1.92149 4.14348
head 9.35903 -1.18159 2.74791
rclavicle 2.87741e-014 -1.59028e-014
rhumerus -34.9585 -14.5983 -77.579
rradius 28.2547
rwrist 9.7772
rhand -11.0398 11.771
rfingers 7.12502
rthumb 14.9821 -17.667
lclavicle 2.87741e-014 -1.59028e-014
lhumerus -24.7325 9.90979 82.7526
lradius 24.6398
lwrist -9.26617
lhand -15.6256 27.2488
lfingers 7.12502
lthumb 10.5613 56.9635
rfemur -31.3 -4.52994 15.3
rtibia 48.8074
rfoot -8.23908 -4.62179
rtoes -5.56341
lfemur -2.02936 1.44032 -30.9401
ltibia 26.043
lfoot -18.011 -2.47019
ltoes 6.59651
48
root 1.25764 17.2901 -19.5678 -1.82359 0.405861 5.72793
lowerback 6.57123 -1.13991 -6.54627
upperback 0.883108 -1.9538 1.04587
thorax -2.51469 -0.910761 4.93405
lowerneck -16.5457 -2.42752 -9.35346
upperneck 20.6729 -1.84002 4.12062
head 9.38821 -1.14057 2.74347
rclavicle 1.68967e-015 1.19271e-014
rhumerus -35.094 -14.1795 -77.6919
rradius 28.2852
rwrist 9.3768
rhand -10.97 11.378
rfingers 7.12502
rthumb 15.0494 -18.055
lclavicle 1.68967e-015 1.19271e-014
lhumerus -24.4086 9.45434 82.8399
lradius 25.2582
lwrist -9.01388
lhand -15.629 28.2145
lfingers 7.12502
lthumb 10.5581 57.9293
rfemur -31.3011 -4.23615 15.0366
rtibia 46.041
rfoot -8.10615 -5.12148
rtoes -5.1619
lfemur -1.42544 1.29205 -31.1056
ltibia 25.7383
lfoot -18.3333 -2.33931
ltoes 6.56169
49
root 1.23931 17.2919 -19.4212 -1.55496 0.151807 5.60555
lowerback 6.3018 -1.12546 -6.63599
upperback 0.888555 -1.91845 1.17133
thorax -2.35554 -0.898244 5.10456
lowerneck -16.896 -2.44944 -9.2553
upperneck 20.7725 -1.82442 3.9615
head 9.4847 -1.14228 2.67413
rclavicle 1.83876e-015 -1.59028e-015
rhumerus -35.1023 -14.0536 -77.6746
rradius 28.2727
rwrist 9.44058
rhand -11.1181 11.196
rfingers 7.12502
rthumb 14.9067 -18.2476
lclavicle 1.83876e-015 -1.59028e-015
lhumerus -23.9641 9.58532 82.7743
lradius 25.7442
lwrist -10.046
lhand -14.5742 29.4526
lfingers 7.12502
lthumb 11.5754 59.113
rfemur -31.4451 -3.50802 15.1547
rtibia 43.1219
rfoot -7.57112 -5.66231
rtoes -3.70046
lfemur -0.982359 1.68025 -30.8961
ltibia 25.3368
lfoot -18.4997 -2.16556
ltoes 5.63448
50
root 1.21897 17.3034 -19.2731 -1.31388 0.217981 5.2896
lowerback 6.10181 -1.20799 -6.49601
upperback 0.776945 -2.00511 1.29383
thorax -2.34827 -0.939655 5.15548
lowerneck -16.4608 -2.40067 -9.20803
upperneck 20.5627 -1.81578 3.97701
head 9.32956 -1.1325 2.67085
rclavicle 1.5207e-014 -3.18055e-015
rhumerus -35.453 -14.1248 -77.5504
rradius 28.2033
rwrist 9.69078
rhand -11.1336 11.6162
rfingers 7.12502
rthumb 14.8918 -17.8285
lclavicle 1.5207e-014 -3.18055e-015
lhumerus -23.7431 9.43118 82.643
lradius 25.8123
lwrist -10.5565
lhand -14.044 29.516
lfingers 7.12502
lthumb 12.0866 59.1469
rfemur -31.467 -2.92904 15.457
rtibia 40.1367
rfoot -6.77976 -6.3301
rtoes -3.91875
lfemur -0.442518 1.73967 -30.4772
ltibia 24.7989
lfoot -18.5904 -2.05136
ltoes 4.97411
51
root 1.20232 17.3068 -19.1206 -1.14156 0.699143 5.37516
lowerback 6.05219 -1.44085 -6.73393
upperback 0.649182 -2.32955 1.35945
thorax -2.39691 -1.09387 5.38272
lowerneck -16.0112 -2.30355 -9.47095
upperneck 20.4139 -1.7115 4.21381
head 9.19159 -1.07949 2.80909
rclavicle -2.15184e-014 -1.19271e-014
rhumerus -35.698 -13.9525 -77.4583
rradius 28.104
rwrist 9.86214
rhand -11.1448 11.5991
rfingers 7.12502
rthumb 14.881 -17.8465
lclavicle -2.15184e-014 -1.19271e-014
lhumerus -23.7132 8.86228 82.77
lradius 25.9837
lwrist -9.30558
lhand -14.8049 28.8598
lfingers 7.12502
lthumb 11.3529 58.5325
rfemur -31.2873 -2.75567 15.2164
rtibia 37.1353
rfoot -6.07877 -6.88169
rtoes -4.76949
lfemur 0.242227 1.53915 -30.505
ltibia 24.2559
lfoot -18.6837 -2.12685
ltoes 4.69227
52
root 1.19142 17.2995 -18.9625 -0.95324 1.00236 5.67281
lowerback 5.8501 -1.56154 -6.98442
upperback 0.702025 -2.49373 1.23714
thorax -2.20023 -1.1832 5.39742
lowerneck -16.464 -2.26407 -9.43953
upperneck 20.7943 -1.65309 4.34467
head 9.4028 -1.03876 2.86261
rclavicle 4.91992e-015 9.54166e-015
rhumerus -35.6726 -13.8993 -77.6326
rradius 28.2065
rwrist 9.50223
rhand -10.9043 10.6754
rfingers 7.12502
rthumb 15.1127 -18.7529
lclavicle 4.91992e-015 9.54166e-015
lhumerus -23.2764 8.18208 82.8465
lradius 26.1428
lwrist -7.96232
lhand -15.7238 28.4434
lfingers 7.12502
lthumb 10.4666 58.1628
rfemur -31.0167 -2.59524 14.7456
rtibia 34.1331
rfoot -5.84593 -7.20504
rtoes -4.60344
lfemur 0.833946 1.59811 -30.7938
ltibia 23.741
lfoot -18.6469 -2.15298
ltoes 4.30441
53
root 1.18025 17.2876 -18.8069 -0.747953 1.07658 5.63055
lowerback 5.70273 -1.62219 -6.90086
upperback 0.695104 -2.55885 1.22998
thorax -2.11952 -1.21942 5.34067
lowerneck -16.7141 -2.28922 -9.35279
upperneck 20.9507 -1.68072 4.3146
head 9.50472 -1.04889 2.83636
rclavicle -3.77691e-015 -2.22639e-014
rhumerus -35.7484 -14.2021 -77.496
rradius 28.1024
rwrist 9.56886
rhand -10.7453 11.2621
rfingers 7.12502
rthumb 15.2659 -18.1546
lclavicle -3.77691e-015 -2.22639e-014
lhumerus -22.9733 7.55575 82.9338
lradius 26.4099
lwrist -7.09854
lhand -16.4087 28.0823
lfingers 7.12502
lthumb 9.80585 57.834
rfemur -30.6557 -2.26866 14.6907
rtibia 31.1503
rfoot -5.96379 -7.46409
rtoes -4.04047
lfemur 1.41109 1.75319 -30.7212
ltibia 23.2637
lfoot -18.6834 -2.04499
ltoes 4.04326
54
root 1.16713 17.2762 -18.6542 -0.504023 1.18264 5.45101
lowerback 5.5026 -1.68209 -6.71925
upperback 0.631436 -2.61405 1.27476
thorax -2.0718 -1.24846 5.28132
lowerneck -16.5416 -2.28779 -9.34259
upperneck 20.8709 -1.71872 4.39973
head 9.44771 -1.05628 2.85851
rclavicle 8.79622e-015 -1.19271e-014
rhumerus -35.8984 -14.3743 -77.3998
rradius 27.9862
rwrist 9.6297
rhand -10.868 11.4279
rfingers 7.12502
rthumb 15.1476 -17.9977
lclavicle 8.79622e-015 -1.19271e-014
lhumerus -22.7756 7.2039 82.922
lradius 26.7279
lwrist -7.1485
lhand -16.3201 28.1128
lfingers 7.12502
lthumb 9.89131 57.8604
rfemur -30.3535 -1.72107 14.6997
rtibia 28.1676
rfoot -5.86674 -7.79972
rtoes -4.66174
lfemur 1.97813 1.57477 -30.5147
ltibia 22.8868
lfoot -18.7738 -1.90299
ltoes 4.05094
55
root 1.14927 17.2656 -18.5037 -0.272076 1.3886 5.41451
lowerback 5.35281 -1.7655 -6.7933
upperback 0.554046 -2.71991 1.33514
thorax -2.04711 -1.29948 5.38805
lowerneck -16.5462 -2.27285 -9.3344
upperneck 20.9893 -1.70529 4.41559
head 9.48891 -1.04986 2.86635
rclavicle 3.47873e-014 3.97569e-015
rhumerus -36.0458 -14.5494 -77.2444
rradius 27.7621
rwrist 9.95494
rhand -11.1939 11.5276
rfingers 7.12502
rthumb 14.8337 -17.9215
lclavicle 3.47873e-014 3.97569e-015
lhumerus -22.5747 7.2932 82.8394
lradius 27.0932
lwrist -7.94252
lhand -16.3622 27.8756
lfingers 7.12502
lthumb 9.85072 57.6252
rfemur -29.9946 -1.0058 14.4429
rtibia 25.148
rfoot -5.76658 -8.25194
rtoes -5.4082
lfemur 2.47256 1.37098 -30.4238
ltibia 22.6095
lfoot -18.9186 -1.85279
ltoes 3.86401
56
root 1.12896 17.2671 -18.3503 -0.0843624 1.56149 5.48123
lowerback 5.3605 -1.86065 -6.99409
upperback 0.411876 -2.86199 1.39639
thorax -2.1662 -1.35978 5.57825
lowerneck -16.6961 -2.24324 -9.26919
upperneck 21.2446 -1.63438 4.26698
head 9.5998 -1.03208 2.81637
rclavicle 9.64106e-015 1.11319e-014
rhumerus -36.2356 -14.717 -77.0218
rradius 27.6025
rwrist 10.2074
rhand -11.0623 11.1089
rfingers 7.12502
rthumb 14.9604 -18.3307
lclavicle 9.64106e-015 1.11319e-014
lhumerus -22.4222 7.55706 82.7178
lradius 27.4002
lwrist -8.97234
lhand -16.3318 27.1581
lfingers 7.12502
lthumb 9.88008 56.9062
rfemur -29.488 -0.176463 13.9863
rtibia 22.1917
rfoot -5.86496 -8.42603
rtoes -4.30276
lfemur 3.00704 1.32315 -30.4335
ltibia 22.2472
lfoot -18.954 -1.60348
ltoes 2.59511
